<svg width="64" height="64" viewBox="0 0 64 64" xmlns="http://www.w3.org/2000/svg">
  <defs>
    <linearGradient id="biaGradient" x1="0%" y1="0%" x2="100%" y2="100%">
      <stop offset="0%" stop-color="#f87171" />
      <stop offset="100%" stop-color="#dc2626" />
    </linearGradient>
  </defs>
  <rect x="6" y="6" width="52" height="52" rx="16" fill="url(#biaGradient)" />
  <path d="M24 22h10.8c5.52 0 9.2 3.2 9.2 7.8 0 2.8-1.32 4.76-3.52 6 2.72 1.08 4.52 3.52 4.52 6.88 0 4.92-3.92 8.32-9.76 8.32H24V22zm9.84 11.72c1.92 0 3.16-1.04 3.16-2.84 0-1.68-1.16-2.68-3.16-2.68H29.6v5.52h4.24zm0.64 12.04c2.36 0 3.92-1.28 3.92-3.36 0-2.04-1.52-3.28-3.92-3.28H29.6v6.64h4.88z" fill="#fff" />
</svg>
